<svg id="图层_1" data-name="图层 1" xmlns="http://www.w3.org/2000/svg" width="123" height="18" viewBox="0 0 123 18">
  <title>云logo</title>
  <polygon id="Fill-4" points="77.209 5.311 84.613 5.311 84.613 4.226 77.209 4.226 77.209 5.311"/>
  <path id="Fill-6" d="M80.353,9.533h7.012V8.449h-11.3V9.533h3.031c-.626,1.651-2.2,5.789-2.207,5.823a.057.057,0,0,0,.027.074.051.051,0,0,0,.028.006h9.8a.061.061,0,0,0,.06-.062h0a.053.053,0,0,0-.006-.024l-1.4-3.711H84.22a.059.059,0,0,0-.061.058h0a.053.053,0,0,0,.005.024l.994,2.627H78.529Z"/>
  <polygon id="Fill-7" points="100.056 14.374 100.056 8.344 102.809 8.344 102.809 7.247 100.056 7.247 100.056 3.65 98.865 3.65 98.865 7.247 96.112 7.247 96.112 8.344 98.865 8.344 98.865 14.374 95.748 14.374 95.748 15.471 103.173 15.471 103.173 14.374 100.056 14.374"/>
  <path id="Fill-8" d="M96.607,11.213a.061.061,0,0,0,.061-.061h0a.065.065,0,0,0-.015-.039L95.095,9.257h-.5a7.9,7.9,0,0,0,1.124-2.116l.019-.057V6.146h-3.9v1h2.722a9.564,9.564,0,0,1-2.825,3.525v1.221a.061.061,0,0,0,.062.06h0a.056.056,0,0,0,.031-.009,9.465,9.465,0,0,0,1.547-1.251v4.979h1.1V10.21l.839,1Z"/>
  <path id="Fill-9" d="M92.558,3.65a.06.06,0,0,0-.06.06.059.059,0,0,0,.011.034l1.136,1.835h1.176a.062.062,0,0,0,.059-.065.059.059,0,0,0-.008-.03L93.736,3.65Z"/>
  <path id="Fill-10" d="M114.1,5.762h-1.41l-2.1,2.733-2.144-2.733h-1.41a.061.061,0,0,0-.063.058.065.065,0,0,0,.013.04l2.843,3.629-2.988,3.9a.062.062,0,0,0,.013.086h0a.063.063,0,0,0,.037.012h1.415l2.3-3,2.354,3h1.424a.059.059,0,0,0,.059-.058h0a.058.058,0,0,0-.013-.036l-3.058-3.9,2.78-3.629a.061.061,0,0,0-.012-.085h0a.065.065,0,0,0-.039-.012"/>
  <polygon id="Fill-11" points="115.25 14.228 106.113 14.228 106.113 4.939 115.154 4.939 115.154 3.843 104.921 3.843 104.921 15.325 115.25 15.325 115.25 14.228"/>
  <polygon id="Fill-12" points="90.363 4.338 88.342 4.338 88.342 2.307 87.258 2.307 87.258 4.338 85.236 4.338 85.236 5.426 87.258 5.426 87.258 7.456 88.342 7.456 88.342 5.426 90.363 5.426 90.363 4.338"/>
  <g>
    <path d="M53.691,3.186H46.424V4.238h2.188V8.072H46.1V9.123h2.507v6.43h1.157V9.123h2.766v6.295h2.184V14.366H53.691ZM49.768,8.072V4.238h2.766V8.072Z"/>
    <rect x="33.531" y="12.612" width="5.734" height="1.052"/>
    <path d="M29.625,10.666a19.068,19.068,0,0,1-.473,4.65c-.033.119,0,.151.065.151h1.054a21.963,21.963,0,0,0,.4-4.3h1.474V14.44H31.1c-.051,0-.09.033-.063.106l.288.946H33.2V3.213H29.625Zm1.052-.442V7.708h1.473v2.517Zm1.473-5.96v2.5H30.676v-2.5Z"/>
    <path d="M39.671,7.475h1.412V6.529H36.969a9.61,9.61,0,0,0,.338-.978h3.518V4.6H39.794L40.18,3.29c.021-.07-.016-.1-.062-.1h-.9L38.808,4.6H37.543c.118-.547.221-1.153.314-1.833.011-.079-.032-.094-.084-.094H36.754c-.1.723-.213,1.345-.353,1.928h-.621l-.415-1.412h-.9c-.045,0-.082.027-.062.1L34.795,4.6h-1v.946h2.344a9.13,9.13,0,0,1-.385.978H33.533v.946H35.2a5.409,5.409,0,0,1-1.675,1.567v1.083c0,.055.043.112.214.015a9.525,9.525,0,0,0,.98-.625h3.917L38.6,10.933H35.508l.047-.847a.062.062,0,0,0-.064-.064H34.5l-.1,1.794a.062.062,0,0,0,.064.064H39.8v2.559H37.4c-.051,0-.09.033-.063.106l.288.946h3.337V10.933H39.653l.043-1.84A7.619,7.619,0,0,0,41.13,10.14c.171.1.214.039.214-.015V9.042A5.422,5.422,0,0,1,39.671,7.475Zm-1.287,0a7.673,7.673,0,0,0,.8,1.094H35.744a6.707,6.707,0,0,0,.767-1.094Z"/>
    <path d="M47.157,11.881l-1.95,1.478V6.523H42.5V7.679h1.554v6.55l-.621.471.635.839,3.19-2.417V11.93A.064.064,0,0,0,47.157,11.881Z"/>
    <path d="M44.21,5.487h1.264a.064.064,0,0,0,.054-.1L43.934,2.953H42.669a.064.064,0,0,0-.056.1Z"/>
    <rect x="57.164" y="3.467" width="9.129" height="1.157"/>
    <path d="M60.475,9h7.1V7.838h-11.7V9h3.246c-.671,1.76-2.353,6.178-2.365,6.21a.063.063,0,0,0,.06.089H66.912a.065.065,0,0,0,.058-.092l-1.5-3.956H64.209a.064.064,0,0,0-.06.088l1.065,2.8H58.522Z"/>
  </g>
  <g>
    <path d="M22.277,14.769a3.61,3.61,0,0,1-2.506.971c-.594.02-1.288.022-1.6.022h-6.9l4.95-4.808c.228-.221.74-.711,1.181-1.109A3.553,3.553,0,0,1,19.856,8.8a3.477,3.477,0,0,1,2.422,5.966M23.93,8.28a5.681,5.681,0,0,0-4.066-1.714,5.569,5.569,0,0,0-3.609,1.322c-.453.369-.927.81-1.525,1.39l-8.9,8.634A13.333,13.333,0,0,0,7.457,18c.518,0,10.4,0,10.814,0,.833,0,1.374,0,1.956-.043a5.625,5.625,0,0,0,3.615-1.588A5.715,5.715,0,0,0,23.93,8.28Z" style="fill: #00a3ff"/>
    <path d="M10.054,7.743A5.581,5.581,0,0,0,6.628,6.566a5.714,5.714,0,0,0-3.978,9.8A5.552,5.552,0,0,0,5.833,17.91l2.215-2.149c-.358,0-.872-.006-1.328-.022a3.61,3.61,0,0,1-2.506-.971A3.477,3.477,0,0,1,6.636,8.8a3.61,3.61,0,0,1,2.358.944c.444.368,1.429,1.234,1.861,1.623a.053.053,0,0,0,.074,0l1.525-1.488a.054.054,0,0,0,0-.084c-.733-.663-1.773-1.59-2.4-2.056" style="fill: #00c8dc"/>
    <path d="M20.463,5.274A7.656,7.656,0,0,0,5.682,6.645a5.687,5.687,0,0,1,.946-.079,5.467,5.467,0,0,1,1.292.151l.024,0A5.415,5.415,0,0,1,18.165,5.569a.049.049,0,0,0,.06.032,6.569,6.569,0,0,1,2.161-.225c.073.005.1-.035.077-.1" style="fill: #006eff"/>
  </g>
  <circle cx="71.917" cy="9" r="1.417"/>
</svg>
